<svg xmlns="http://www.w3.org/2000/svg" viewBox="0 0 760 430"><rect width="760" height="430" rx="24" fill="#f3efe5"/><rect x="72" y="58" width="616" height="314" rx="22" fill="#fffdf7" stroke="#17324d" stroke-width="2"/><rect x="104" y="90" width="184" height="250" rx="18" fill="#17324d"/><circle cx="196" cy="164" r="48" fill="#d7b46a"/><path d="M174 165h44M196 143v44" stroke="#17324d" stroke-width="9" stroke-linecap="round"/><rect x="332" y="96" width="180" height="20" rx="10" fill="#17324d"/><rect x="332" y="136" width="306" height="13" rx="6" fill="#7a7875" opacity=".45"/><rect x="332" y="176" width="306" height="80" rx="16" fill="#eef2f5"/><path d="M354 226l52-28 45 14 65-49 62 24 40-34" fill="none" stroke="#17324d" stroke-width="4"/><circle cx="618" cy="153" r="5" fill="#d7b46a"/><rect x="332" y="280" width="128" height="38" rx="19" fill="#17324d"/><rect x="480" y="280" width="158" height="38" rx="19" fill="#f3efe5" stroke="#d7b46a" stroke-width="2"/><text x="104" y="398" font-family="Arial" font-size="24" font-weight="700" fill="#17324d">Investify</text><text x="214" y="398" font-family="Arial" font-size="13" fill="#7a7875">Founder ↔ investor platform</text></svg>
